<svg width="25" height="25" viewBox="0 0 25 25" fill="none" xmlns="http://www.w3.org/2000/svg">
<path fill-rule="evenodd" clip-rule="evenodd" d="M12.5 6.75C12.9142 6.75 13.25 7.08579 13.25 7.5V13.5C13.25 13.9142 12.9142 14.25 12.5 14.25C12.0858 14.25 11.75 13.9142 11.75 13.5V7.5C11.75 7.08579 12.0858 6.75 12.5 6.75Z" fill="#111111"/>
<path d="M13.5 16.5C13.5 17.0523 13.0523 17.5 12.5 17.5C11.9477 17.5 11.5 17.0523 11.5 16.5C11.5 15.9477 11.9477 15.5 12.5 15.5C13.0523 15.5 13.5 15.9477 13.5 16.5Z" fill="#111111"/>
<path fill-rule="evenodd" clip-rule="evenodd" d="M12.5 3.25C10.8139 3.25 9.23533 3.70043 7.87554 4.48703C7.517 4.69443 7.0582 4.57191 6.8508 4.21337C6.64339 3.85482 6.76591 3.39602 7.12446 3.18862C8.7064 2.27351 10.5432 1.75 12.5 1.75C18.4371 1.75 23.25 6.56294 23.25 12.5C23.25 18.4371 18.4371 23.25 12.5 23.25C6.56294 23.25 1.75 18.4371 1.75 12.5C1.75 10.5432 2.27351 8.7064 3.18862 7.12446C3.39602 6.76591 3.85482 6.64339 4.21337 6.8508C4.57191 7.0582 4.69443 7.517 4.48703 7.87554C3.70043 9.23533 3.25 10.8139 3.25 12.5C3.25 17.6086 7.39137 21.75 12.5 21.75C17.6086 21.75 21.75 17.6086 21.75 12.5C21.75 7.39137 17.6086 3.25 12.5 3.25Z" fill="#111111"/>
</svg>
