<svg width="130" height="130" viewBox="0 0 130 130" fill="none" xmlns="http://www.w3.org/2000/svg">
<g clip-path="url(#clip0_337_28)">
<path d="M65 0C29.1 0 0 29.1 0 65C0 100.9 29.1 130 65 130C100.9 130 130 100.9 130 65C130 29.1 100.9 0 65 0ZM65 120C36.5 120 12.7 98.1 10.2 69.7H30V89.7H60V79.7H40V69.7H60V59.7H40V49.7H60V39.7H30V59.7H10.3C13.2 29.5 40.2 7.4 70.4 10.3C96.5 12.9 117.2 33.5 119.7 59.6H100.1V39.6H70.1V49.6H90.1V59.6H70.1V69.6H90.1V79.6H70.1V89.6H100.1V69.6H119.8C117.3 98 93.6 119.9 65 119.9V120Z" fill="white"/>
</g>
<defs>
<clipPath id="clip0_337_28">
<rect width="130" height="130" fill="white"/>
</clipPath>
</defs>
</svg>
