<svg width="512" height="512" viewBox="0 0 512 512" fill="none" xmlns="http://www.w3.org/2000/svg">
<path d="M64 192C64 141.078 84.2285 92.2425 120.235 56.2355C156.242 20.2285 205.078 0 256 0C306.922 0 355.758 20.2285 391.764 56.2355C427.771 92.2425 448 141.078 448 192C448 320 256 512 256 512C256 512 64 320 64 192ZM176 192C176 213.217 184.429 233.566 199.431 248.569C214.434 263.571 234.783 272 256 272C277.217 272 297.566 263.571 312.569 248.569C327.571 233.566 336 213.217 336 192C336 170.783 327.571 150.434 312.569 135.431C297.566 120.429 277.217 112 256 112C234.783 112 214.434 120.429 199.431 135.431C184.429 150.434 176 170.783 176 192Z" fill="black"/>
</svg>
